# xmcd
#
# Track frame offsets:
#	150
#	32025
#	61925
#	84903
#	104054
#	132003
#	156632
#	198446
#	225555
#	252652
#	277340
#	297493
#
# Disc length: 4331 seconds
#
# Revision: 1
# Processed by: cddbd v1.5.1PL2 Copyright (c) Steve Scherf et al.
# Submitted via: audiograbber 1.81.03
#
DISCID=b810e90c
DTITLE=Steve Thorpe - Live, Down and Dirty
DYEAR=2006
DGENRE=Blues
TTITLE0=Dust My Broom - Boot Hill
TTITLE1=The Thrill Is Gone
TTITLE2=Little Bit
TTITLE3=Move Too Soon
TTITLE4=Sweet Little Angel - How Blue Can You Get
TTITLE5=Flower Girl
TTITLE6=Little Wing
TTITLE7=Everyday I Have The Blues
TTITLE8=Key To The Highway
TTITLE9=Stormy Monday
TTITLE10=(Introductions) Young Fashion Ways
TTITLE11=Hurricane Grays (bonus track)
EXTD=
EXTT0=
EXTT1=
EXTT2=
EXTT3=
EXTT4=
EXTT5=
EXTT6=
EXTT7=
EXTT8=
EXTT9=
EXTT10=
EXTT11=
PLAYORDER=
